<?xml version="1.0" encoding="UTF-8"?>
<svg id="Layer_1" data-name="Layer 1" xmlns="http://www.w3.org/2000/svg" viewBox="0 0 1678.75 1003.25">
  <defs>
    <style>
      .cls-1 {
        fill: #fff;
      }

      .cls-2 {
        fill: #3df5dc;
      }

      .cls-3 {
        fill: #333;
      }
    </style>
  </defs>
  <polygon class="cls-2" points="1385.75 625 1537.75 168.75 1134.25 0 163.75 99.25 185.75 300.5 140.75 313.75 200 611.75 1100.5 535.5 1385.75 625"/>
  <g>
    <polygon class="cls-1" points="1630 883.25 1630 793 1583.75 803.5 1583.75 883.25 1482.75 883.25 1482.75 882.25 1613.75 666.75 1560 666.75 1431.5 881.75 1431.5 923.75 1583.5 923.75 1583.5 998.25 1630 998.25 1630 923.75 1678.75 923.75 1678.75 883.25 1630 883.25"/>
    <path class="cls-1" d="M1278.75,956.75c83.25-70.25,141-125.75,141-196,0-57.75-41.25-99-106-99-41,0-91.5,22-108,88.5l44,10.25c9.75-40.75,36-57,64-57,34.75,0,58.5,23.25,58.5,59.5,0,61-61,109-161.75,198v37.25h221v-40.5h-152.75v-1Z"/>
    <path class="cls-1" d="M1112.25,674l-46,10.5v67h-43.25v37.5h43.25v144.25c0,47.25,27.75,68.5,79.25,68.5,13.5,0,25.5-1.5,35-3.75v-37.75c-7.75,2.25-17.5,3.5-26.75,3.5-24.25,0-41.5-6.75-41.5-36.25v-138.5h68.25v-37.5h-68.25v-77.5Z"/>
    <path class="cls-1" d="M954.5,894.75c0,49.5-30,70.25-62,70.25s-50.75-20.5-50.75-60.25v-153.25h-46v156.25c0,63.5,33.75,95.5,90.75,95.5,32,0,57-14,70.5-34.75h1l3,29.75h39.5v-246.75h-46v143.25Z"/>
    <path class="cls-1" d="M641,746.5c-75,0-123.75,57.25-123.75,128.5s48.75,128.25,123.75,128.25,123.5-57.75,123.5-128.25-48.75-128.5-123.5-128.5ZM641,963.75c-46.75,0-75.25-34.5-75.25-88.75s28.5-89,75.25-89,75,34.5,75,89-28.5,88.75-75,88.75Z"/>
    <path class="cls-1" d="M392.25,963.75c-46.75,0-75.25-34.5-75.25-88.75s28.5-89,74.75-89c33.25,0,57,18,69.75,47.75l40.75-17.5c-18.75-41.5-57.5-69.75-110.5-69.75-74.5,0-123.25,57.25-123.25,128.5s48.75,128.25,123.75,128.25c55,0,92.5-28.75,111.25-70.5l-41.25-17c-12.25,29.75-36.5,48-70,48Z"/>
    <path class="cls-1" d="M164.5,815l-45.25-14.5c-28.75-9.25-48.75-20.25-48.75-50.25s24-47.5,55-47.5,57.75,16.5,77.5,40l32.5-29.75c-21.25-26.25-63.25-51-110-51-60.25,0-103,37.75-103,91.25s36,76,83.25,92l42,14.25c34.25,11.5,48.5,23.75,48.5,49.5,0,33-25.5,53-65.75,53s-72.75-21.5-93.75-53.75L0,935.5c28.25,44.25,81.5,67.5,130.75,67.5,67.75,0,114-36.5,114-99,0-48.75-30.25-73-80.25-89Z"/>
  </g>
  <g>
    <path class="cls-3" d="M1018,223c-32.25,0-57.5,14.5-71.75,39.5h-1c-10.5-22.5-35.5-39.5-71-39.5-30.75,0-55.75,15-67.25,35h-1l-3-30h-40v246.75h46v-147.75c0-46,25-65.75,54.25-65.75s45.25,19.5,45.25,55.75v157.75h46v-147.75c0-46,23.25-65.75,52.25-65.75s47,17,47,53.5v160h46v-163.75c0-57.5-30.25-88-81.75-88Z"/>
    <path class="cls-3" d="M637.5,222.25c-32.25,0-57.5,14.5-71.75,39.5h-1c-10.5-22.5-35.5-39.5-71-39.5-30.75,0-55.75,15-67.25,35h-1l-3-30h-40v246.75h46v-147.75c0-46,25-65.75,54.25-65.75s45.25,19.5,45.25,55.75v157.75h46v-147.75c0-46,23.25-65.75,52.25-65.75s47,17,47,53.5v160h46v-163.75c0-57.5-30.25-88-81.75-88Z"/>
    <polygon class="cls-3" points="289.25 474.5 336.25 474.5 336.25 143.5 289.25 153.5 289.25 474.5"/>
    <path class="cls-3" d="M1253.5,223c-75,0-123.75,57.25-123.75,128.5s48.75,128.25,123.75,128.25,123.5-57.75,123.5-128.25-48.75-128.5-123.5-128.5ZM1253.5,440.25c-46.75,0-75.25-34.5-75.25-88.75s28.5-89,75.25-89,75,34.5,75,89-28.5,88.75-75,88.75Z"/>
  </g>
</svg>